<svg width="40" height="40" viewBox="0 0 40 40" fill="none" xmlns="http://www.w3.org/2000/svg">
<path d="M10 6.66683V13.3335H30V6.66683H33.3443C34.2587 6.66683 35 7.40841 35 8.3225V35.0112C35 35.9255 34.2585 36.6668 33.3443 36.6668H6.65567C5.74127 36.6668 5 35.9253 5 35.0112V8.3225C5 7.4081 5.74158 6.66683 6.65567 6.66683H10ZM15 28.3335H11.6667V31.6668H15V28.3335ZM15 23.3335H11.6667V26.6668H15V23.3335ZM15 18.3335H11.6667V21.6668H15V18.3335ZM26.6667 3.3335V10.0002H13.3333V3.3335H26.6667Z" fill="black" fill-opacity="0.8"/>
</svg>
