<svg width="133" height="44" viewBox="0 0 133 44" fill="none" xmlns="http://www.w3.org/2000/svg">
<path d="M10 8C10 3.58172 13.5817 0 18 0H40.75H61.5H71.5H81.5H102.25H125C129.418 0 133 3.58172 133 8V36C133 40.4183 129.418 44 125 44H58.4185H52.982H50.2638H47.5456H18C13.5817 44 10 40.4183 10 36V31.75L0 21.75L10 11.75V8Z" fill="black" fill-opacity="0.8"/>
<path d="M25.852 27.084C25.1147 27.084 24.4333 26.9627 23.808 26.72C23.1827 26.468 22.6413 26.118 22.184 25.67C21.7267 25.222 21.3673 24.6947 21.106 24.088C20.854 23.4813 20.728 22.8187 20.728 22.1C20.728 21.3813 20.854 20.7187 21.106 20.112C21.3673 19.5053 21.7267 18.978 22.184 18.53C22.6507 18.082 23.1967 17.7367 23.822 17.494C24.4473 17.242 25.1287 17.116 25.866 17.116C26.5753 17.116 27.2427 17.2373 27.868 17.48C28.4933 17.7133 29.0207 18.068 29.45 18.544L28.792 19.202C28.3907 18.7913 27.9473 18.4973 27.462 18.32C26.9767 18.1333 26.454 18.04 25.894 18.04C25.306 18.04 24.76 18.1427 24.256 18.348C23.752 18.544 23.3133 18.8287 22.94 19.202C22.5667 19.566 22.2727 19.9953 22.058 20.49C21.8527 20.9753 21.75 21.512 21.75 22.1C21.75 22.688 21.8527 23.2293 22.058 23.724C22.2727 24.2093 22.5667 24.6387 22.94 25.012C23.3133 25.376 23.752 25.6607 24.256 25.866C24.76 26.062 25.306 26.16 25.894 26.16C26.454 26.16 26.9767 26.0667 27.462 25.88C27.9473 25.6933 28.3907 25.3947 28.792 24.984L29.45 25.642C29.0207 26.118 28.4933 26.4773 27.868 26.72C27.2427 26.9627 26.5707 27.084 25.852 27.084ZM34.1164 27.07C33.407 27.07 32.7677 26.9113 32.1984 26.594C31.6384 26.2673 31.195 25.824 30.8684 25.264C30.5417 24.6947 30.3784 24.046 30.3784 23.318C30.3784 22.5807 30.5417 21.932 30.8684 21.372C31.195 20.812 31.6384 20.3733 32.1984 20.056C32.7584 19.7387 33.3977 19.58 34.1164 19.58C34.8444 19.58 35.4884 19.7387 36.0484 20.056C36.6177 20.3733 37.061 20.812 37.3784 21.372C37.705 21.932 37.8684 22.5807 37.8684 23.318C37.8684 24.046 37.705 24.6947 37.3784 25.264C37.061 25.824 36.6177 26.2673 36.0484 26.594C35.479 26.9113 34.835 27.07 34.1164 27.07ZM34.1164 26.188C34.6484 26.188 35.1197 26.0713 35.5304 25.838C35.941 25.5953 36.263 25.2593 36.4964 24.83C36.739 24.3913 36.8604 23.8873 36.8604 23.318C36.8604 22.7393 36.739 22.2353 36.4964 21.806C36.263 21.3767 35.941 21.0453 35.5304 20.812C35.1197 20.5693 34.653 20.448 34.1304 20.448C33.6077 20.448 33.141 20.5693 32.7304 20.812C32.3197 21.0453 31.993 21.3767 31.7504 21.806C31.5077 22.2353 31.3864 22.7393 31.3864 23.318C31.3864 23.8873 31.5077 24.3913 31.7504 24.83C31.993 25.2593 32.3197 25.5953 32.7304 25.838C33.141 26.0713 33.603 26.188 34.1164 26.188ZM49.0817 19.58C49.6791 19.58 50.1971 19.6967 50.6357 19.93C51.0837 20.154 51.4291 20.4993 51.6717 20.966C51.9237 21.4327 52.0497 22.0207 52.0497 22.73V27H51.0557V22.828C51.0557 22.0533 50.8691 21.47 50.4957 21.078C50.1317 20.6767 49.6137 20.476 48.9417 20.476C48.4377 20.476 47.9991 20.5833 47.6257 20.798C47.2617 21.0033 46.9771 21.3067 46.7717 21.708C46.5757 22.1 46.4777 22.576 46.4777 23.136V27H45.4837V22.828C45.4837 22.0533 45.2971 21.47 44.9237 21.078C44.5504 20.6767 44.0277 20.476 43.3557 20.476C42.8611 20.476 42.4271 20.5833 42.0537 20.798C41.6804 21.0033 41.3911 21.3067 41.1857 21.708C40.9897 22.1 40.8917 22.576 40.8917 23.136V27H39.8977V19.65H40.8497V21.638L40.6957 21.288C40.9197 20.756 41.2791 20.3407 41.7737 20.042C42.2777 19.734 42.8704 19.58 43.5517 19.58C44.2704 19.58 44.8817 19.762 45.3857 20.126C45.8897 20.4807 46.2164 21.0173 46.3657 21.736L45.9737 21.582C46.1884 20.9847 46.5664 20.504 47.1077 20.14C47.6584 19.7667 48.3164 19.58 49.0817 19.58ZM54.7454 27V19.65H55.7394V27H54.7454ZM55.2494 18.026C55.044 18.026 54.8714 17.956 54.7314 17.816C54.5914 17.676 54.5214 17.508 54.5214 17.312C54.5214 17.116 54.5914 16.9527 54.7314 16.822C54.8714 16.682 55.044 16.612 55.2494 16.612C55.4547 16.612 55.6274 16.6773 55.7674 16.808C55.9074 16.9387 55.9774 17.102 55.9774 17.298C55.9774 17.5033 55.9074 17.676 55.7674 17.816C55.6367 17.956 55.464 18.026 55.2494 18.026ZM62.2571 19.58C62.8545 19.58 63.3771 19.6967 63.8251 19.93C64.2825 20.154 64.6371 20.4993 64.8891 20.966C65.1505 21.4327 65.2811 22.0207 65.2811 22.73V27H64.2871V22.828C64.2871 22.0533 64.0911 21.47 63.6991 21.078C63.3165 20.6767 62.7751 20.476 62.0751 20.476C61.5525 20.476 61.0951 20.5833 60.7031 20.798C60.3205 21.0033 60.0218 21.3067 59.8071 21.708C59.6018 22.1 59.4991 22.576 59.4991 23.136V27H58.5051V19.65H59.4571V21.666L59.3031 21.288C59.5365 20.756 59.9098 20.3407 60.4231 20.042C60.9365 19.734 61.5478 19.58 62.2571 19.58ZM71.1021 29.786C70.4301 29.786 69.7861 29.688 69.1701 29.492C68.5541 29.296 68.0547 29.016 67.6721 28.652L68.1761 27.896C68.5214 28.204 68.9461 28.4467 69.4501 28.624C69.9634 28.8107 70.5047 28.904 71.0741 28.904C72.0074 28.904 72.6934 28.6847 73.1321 28.246C73.5707 27.8167 73.7901 27.1447 73.7901 26.23V24.396L73.9301 23.136L73.8321 21.876V19.65H74.7841V26.104C74.7841 27.3733 74.4714 28.302 73.8461 28.89C73.2301 29.4873 72.3154 29.786 71.1021 29.786ZM70.9201 26.72C70.2201 26.72 69.5901 26.5707 69.0301 26.272C68.4701 25.964 68.0267 25.5393 67.7001 24.998C67.3827 24.4567 67.2241 23.836 67.2241 23.136C67.2241 22.436 67.3827 21.82 67.7001 21.288C68.0267 20.7467 68.4701 20.3267 69.0301 20.028C69.5901 19.7293 70.2201 19.58 70.9201 19.58C71.5734 19.58 72.1614 19.7153 72.6841 19.986C73.2067 20.2567 73.6221 20.658 73.9301 21.19C74.2381 21.722 74.3921 22.3707 74.3921 23.136C74.3921 23.9013 74.2381 24.55 73.9301 25.082C73.6221 25.614 73.2067 26.02 72.6841 26.3C72.1614 26.58 71.5734 26.72 70.9201 26.72ZM71.0181 25.838C71.5594 25.838 72.0401 25.726 72.4601 25.502C72.8801 25.2687 73.2114 24.9513 73.4541 24.55C73.6967 24.1393 73.8181 23.668 73.8181 23.136C73.8181 22.604 73.6967 22.1373 73.4541 21.736C73.2114 21.3347 72.8801 21.022 72.4601 20.798C72.0401 20.5647 71.5594 20.448 71.0181 20.448C70.4861 20.448 70.0054 20.5647 69.5761 20.798C69.1561 21.022 68.8247 21.3347 68.5821 21.736C68.3487 22.1373 68.2321 22.604 68.2321 23.136C68.2321 23.668 68.3487 24.1393 68.5821 24.55C68.8247 24.9513 69.1561 25.2687 69.5761 25.502C70.0054 25.726 70.4861 25.838 71.0181 25.838ZM83.1881 27.07C82.5815 27.07 82.0075 26.986 81.4661 26.818C80.9248 26.6407 80.5001 26.4213 80.1921 26.16L80.6401 25.376C80.9388 25.6 81.3215 25.796 81.7881 25.964C82.2548 26.1227 82.7448 26.202 83.2581 26.202C83.9581 26.202 84.4621 26.0947 84.7701 25.88C85.0781 25.656 85.2321 25.362 85.2321 24.998C85.2321 24.7273 85.1435 24.5173 84.9661 24.368C84.7981 24.2093 84.5741 24.0927 84.2941 24.018C84.0141 23.934 83.7015 23.864 83.3561 23.808C83.0108 23.752 82.6655 23.6867 82.3201 23.612C81.9841 23.5373 81.6761 23.43 81.3961 23.29C81.1161 23.1407 80.8875 22.94 80.7101 22.688C80.5421 22.436 80.4581 22.1 80.4581 21.68C80.4581 21.2787 80.5701 20.9193 80.7941 20.602C81.0181 20.2847 81.3448 20.0373 81.7741 19.86C82.2128 19.6733 82.7448 19.58 83.3701 19.58C83.8461 19.58 84.3221 19.6453 84.7981 19.776C85.2741 19.8973 85.6661 20.0607 85.9741 20.266L85.5401 21.064C85.2135 20.84 84.8635 20.6813 84.4901 20.588C84.1168 20.4853 83.7435 20.434 83.3701 20.434C82.7075 20.434 82.2175 20.5507 81.9001 20.784C81.5921 21.008 81.4381 21.2973 81.4381 21.652C81.4381 21.932 81.5221 22.1513 81.6901 22.31C81.8675 22.4687 82.0961 22.5947 82.3761 22.688C82.6655 22.772 82.9781 22.842 83.3141 22.898C83.6595 22.954 84.0001 23.024 84.3361 23.108C84.6815 23.1827 84.9941 23.29 85.2741 23.43C85.5635 23.5607 85.7921 23.752 85.9601 24.004C86.1375 24.2467 86.2261 24.5687 86.2261 24.97C86.2261 25.3993 86.1048 25.7727 85.8621 26.09C85.6288 26.398 85.2835 26.6407 84.8261 26.818C84.3781 26.986 83.8321 27.07 83.1881 27.07ZM91.0461 27.07C90.3367 27.07 89.6974 26.9113 89.1281 26.594C88.5681 26.2673 88.1247 25.824 87.7981 25.264C87.4714 24.6947 87.3081 24.046 87.3081 23.318C87.3081 22.5807 87.4714 21.932 87.7981 21.372C88.1247 20.812 88.5681 20.3733 89.1281 20.056C89.6881 19.7387 90.3274 19.58 91.0461 19.58C91.7741 19.58 92.4181 19.7387 92.9781 20.056C93.5474 20.3733 93.9907 20.812 94.3081 21.372C94.6347 21.932 94.7981 22.5807 94.7981 23.318C94.7981 24.046 94.6347 24.6947 94.3081 25.264C93.9907 25.824 93.5474 26.2673 92.9781 26.594C92.4087 26.9113 91.7647 27.07 91.0461 27.07ZM91.0461 26.188C91.5781 26.188 92.0494 26.0713 92.4601 25.838C92.8707 25.5953 93.1927 25.2593 93.4261 24.83C93.6687 24.3913 93.7901 23.8873 93.7901 23.318C93.7901 22.7393 93.6687 22.2353 93.4261 21.806C93.1927 21.3767 92.8707 21.0453 92.4601 20.812C92.0494 20.5693 91.5827 20.448 91.0601 20.448C90.5374 20.448 90.0707 20.5693 89.6601 20.812C89.2494 21.0453 88.9227 21.3767 88.6801 21.806C88.4374 22.2353 88.3161 22.7393 88.3161 23.318C88.3161 23.8873 88.4374 24.3913 88.6801 24.83C88.9227 25.2593 89.2494 25.5953 89.6601 25.838C90.0707 26.0713 90.5327 26.188 91.0461 26.188ZM99.8234 27.07C99.1141 27.07 98.4747 26.9113 97.9054 26.594C97.3454 26.2673 96.9021 25.824 96.5754 25.264C96.2487 24.6947 96.0854 24.046 96.0854 23.318C96.0854 22.5807 96.2487 21.932 96.5754 21.372C96.9021 20.812 97.3454 20.3733 97.9054 20.056C98.4654 19.7387 99.1047 19.58 99.8234 19.58C100.551 19.58 101.195 19.7387 101.755 20.056C102.325 20.3733 102.768 20.812 103.085 21.372C103.412 21.932 103.575 22.5807 103.575 23.318C103.575 24.046 103.412 24.6947 103.085 25.264C102.768 25.824 102.325 26.2673 101.755 26.594C101.186 26.9113 100.542 27.07 99.8234 27.07ZM99.8234 26.188C100.355 26.188 100.827 26.0713 101.237 25.838C101.648 25.5953 101.97 25.2593 102.203 24.83C102.446 24.3913 102.567 23.8873 102.567 23.318C102.567 22.7393 102.446 22.2353 102.203 21.806C101.97 21.3767 101.648 21.0453 101.237 20.812C100.827 20.5693 100.36 20.448 99.8374 20.448C99.3147 20.448 98.8481 20.5693 98.4374 20.812C98.0267 21.0453 97.7001 21.3767 97.4574 21.806C97.2147 22.2353 97.0934 22.7393 97.0934 23.318C97.0934 23.8873 97.2147 24.3913 97.4574 24.83C97.7001 25.2593 98.0267 25.5953 98.4374 25.838C98.8481 26.0713 99.3101 26.188 99.8234 26.188ZM109.357 19.58C109.954 19.58 110.477 19.6967 110.925 19.93C111.382 20.154 111.737 20.4993 111.989 20.966C112.25 21.4327 112.381 22.0207 112.381 22.73V27H111.387V22.828C111.387 22.0533 111.191 21.47 110.799 21.078C110.416 20.6767 109.875 20.476 109.175 20.476C108.652 20.476 108.195 20.5833 107.803 20.798C107.42 21.0033 107.121 21.3067 106.907 21.708C106.701 22.1 106.599 22.576 106.599 23.136V27H105.605V19.65H106.557V21.666L106.403 21.288C106.636 20.756 107.009 20.3407 107.523 20.042C108.036 19.734 108.647 19.58 109.357 19.58ZM115.164 27.07C114.958 27.07 114.781 26.9953 114.632 26.846C114.492 26.6967 114.422 26.5147 114.422 26.3C114.422 26.076 114.492 25.894 114.632 25.754C114.781 25.614 114.958 25.544 115.164 25.544C115.369 25.544 115.542 25.614 115.682 25.754C115.831 25.894 115.906 26.076 115.906 26.3C115.906 26.5147 115.831 26.6967 115.682 26.846C115.542 26.9953 115.369 27.07 115.164 27.07ZM118.202 27.07C117.996 27.07 117.819 26.9953 117.67 26.846C117.53 26.6967 117.46 26.5147 117.46 26.3C117.46 26.076 117.53 25.894 117.67 25.754C117.819 25.614 117.996 25.544 118.202 25.544C118.407 25.544 118.58 25.614 118.72 25.754C118.869 25.894 118.944 26.076 118.944 26.3C118.944 26.5147 118.869 26.6967 118.72 26.846C118.58 26.9953 118.407 27.07 118.202 27.07ZM121.254 27.07C121.048 27.07 120.871 26.9953 120.722 26.846C120.582 26.6967 120.512 26.5147 120.512 26.3C120.512 26.076 120.582 25.894 120.722 25.754C120.871 25.614 121.048 25.544 121.254 25.544C121.459 25.544 121.632 25.614 121.772 25.754C121.921 25.894 121.996 26.076 121.996 26.3C121.996 26.5147 121.921 26.6967 121.772 26.846C121.632 26.9953 121.459 27.07 121.254 27.07Z" fill="white"/>
</svg>
