<svg width="40" height="40" viewBox="0 0 40 40" fill="none" xmlns="http://www.w3.org/2000/svg">
<g clip-path="url(#clip0_66_373)">
<path d="M21.6794 8.24429C11.6031 7.1247 4.88559 12.7226 1.52684 25.0381M18.3206 31.7556C28.3969 32.8752 34.9939 27.3978 38.3526 15.0823M33.435 6.56491C29.8718 3.00172 25.0391 0.99994 20 0.99994C14.9609 0.99994 10.1282 3.00172 6.56497 6.56491C3.00178 10.1281 1 14.9608 1 19.9999C1 25.0391 3.00178 29.8718 6.56497 33.435C10.1282 36.9982 14.9609 38.9999 20 38.9999C25.0391 38.9999 29.8718 36.9982 33.435 33.435C36.9982 29.8718 39 25.0391 39 19.9999C39 14.9608 36.9982 10.1281 33.435 6.56491ZM28.3969 11.603C26.1699 9.37605 23.1494 8.12494 20 8.12494C16.8506 8.12494 13.8301 9.37605 11.6031 11.603C9.37611 13.83 8.125 16.8505 8.125 19.9999C8.125 23.1494 9.37611 26.1698 11.6031 28.3968C13.8301 30.6238 16.8506 31.8749 20 31.8749C23.1494 31.8749 26.1699 30.6238 28.3969 28.3968C30.6239 26.1698 31.875 23.1494 31.875 19.9999C31.875 16.8505 30.6239 13.83 28.3969 11.603Z" stroke="#F0A13D" stroke-width="2" stroke-linejoin="round"/>
<path d="M24.6115 17.3776C24.4666 15.8656 23.1622 15.3583 21.5124 15.2037V13.1216H20.2371V15.1651C19.9013 15.1651 19.5583 15.1651 19.2177 15.1651V13.1216H17.952V15.2182H15.3651V16.583C15.3651 16.583 16.3071 16.566 16.2926 16.583C16.4625 16.5643 16.6329 16.6122 16.7681 16.7168C16.9033 16.8213 16.9926 16.9742 17.0172 17.1433V22.8825C17.0136 22.9421 16.9981 23.0004 16.9715 23.054C16.945 23.1075 16.9079 23.1551 16.8626 23.1941C16.8182 23.2338 16.7662 23.2641 16.7097 23.2832C16.6533 23.3023 16.5936 23.3098 16.5341 23.3052C16.5511 23.3197 15.6066 23.3052 15.6066 23.3052L15.3651 24.8294H17.9279V26.9598H19.2032V24.8608H20.2226V26.9502H21.5004V24.8439C23.655 24.7134 25.1574 24.182 25.3458 22.1651C25.498 20.5419 24.7347 19.8173 23.5149 19.525C24.2564 19.1603 24.7154 18.4839 24.6115 17.3776ZM22.824 21.9139C22.824 23.4984 20.109 23.3173 19.2443 23.3173V20.5057C20.109 20.5081 22.824 20.2593 22.824 21.9139ZM22.2323 17.9525C22.2323 19.4018 19.9665 19.2255 19.2467 19.2255V16.6699C19.9665 16.6699 22.2323 16.4429 22.2323 17.9525Z" fill="#F0A13D"/>
</g>
<defs>
<clipPath id="clip0_66_373">
<rect width="40" height="40" fill="white"/>
</clipPath>
</defs>
</svg>
